<svg width="58" height="14" viewBox="0 0 58 14" fill="none" xmlns="http://www.w3.org/2000/svg">
<path d="M8.13288 9.08H2.38038V6.665H7.81038V4.745H2.38038V2.42H8.07288V0.499999H0.287877V11H8.13288V9.08ZM16.7398 3.7325H14.4748L12.9148 5.99L11.3473 3.7325H9.02228L11.6248 7.31L8.95478 11H11.2198L12.8248 8.69L14.4598 11H16.7848L14.1373 7.3025L16.7398 3.7325ZM21.7589 3.5375C20.7614 3.5375 20.0639 3.9425 19.5914 4.535V3.7325H17.6789V14H19.6289V10.2425C20.1014 10.805 20.7914 11.1875 21.7664 11.1875C23.7689 11.1875 25.2839 9.545 25.2839 7.3625C25.2839 5.18 23.7689 3.5375 21.7589 3.5375ZM21.3989 5.36C22.5539 5.36 23.2739 6.2525 23.2739 7.3625C23.2739 8.4725 22.5539 9.365 21.3989 9.365C20.2889 9.365 19.5314 8.51 19.5314 7.3625C19.5314 6.215 20.2889 5.36 21.3989 5.36ZM28.5023 0.2H26.5448V11H28.5023V0.2ZM33.6976 3.5375C31.4401 3.5375 29.7751 5.1725 29.7751 7.3625C29.7751 9.5525 31.4401 11.1875 33.6976 11.1875C35.9626 11.1875 37.6351 9.5525 37.6351 7.3625C37.6351 5.1725 35.9626 3.5375 33.6976 3.5375ZM33.6976 5.36C34.8001 5.36 35.6326 6.185 35.6326 7.3625C35.6326 8.54 34.8001 9.365 33.6976 9.365C32.5951 9.365 31.7701 8.54 31.7701 7.3625C31.7701 6.185 32.5951 5.36 33.6976 5.36ZM42.8455 3.5375C41.953 3.5375 41.2555 3.845 40.798 4.5275V3.7325H38.9005V11H40.858V7.04C40.858 5.96 41.4805 5.405 42.388 5.405C42.7855 5.405 43.2505 5.495 43.573 5.6375L43.8655 3.695C43.5955 3.5975 43.2655 3.5375 42.8455 3.5375ZM47.842 3.5375C45.667 3.5375 44.167 5.0975 44.167 7.385C44.167 9.6725 45.712 11.1875 47.9395 11.1875C49.162 11.1875 50.212 10.8425 51.037 10.085L49.8895 8.825C49.3645 9.2675 48.682 9.5225 48.052 9.5225C47.1295 9.5225 46.3945 9.065 46.1845 8.015H51.337C51.3595 7.85 51.3745 7.58 51.3745 7.355C51.367 5.09 49.9345 3.5375 47.842 3.5375ZM47.827 5.225C48.667 5.225 49.2295 5.75 49.4095 6.68H46.192C46.3645 5.78 46.9045 5.225 47.827 5.225ZM56.5783 3.5375C55.6858 3.5375 54.9883 3.845 54.5308 4.5275V3.7325H52.6333V11H54.5908V7.04C54.5908 5.96 55.2133 5.405 56.1208 5.405C56.5183 5.405 56.9833 5.495 57.3058 5.6375L57.5983 3.695C57.3283 3.5975 56.9983 3.5375 56.5783 3.5375Z" fill="white"/>
</svg>
