<svg width="414" height="896" viewBox="0 0 414 896" fill="none" xmlns="http://www.w3.org/2000/svg">
<rect width="414" height="896" rx="30" fill="#010035"/>
<circle cx="201" cy="448" r="66" fill="#FF6E4E"/>
<path d="M186.985 437.485H175.915V433.645H186.28V429.145H175.915V425.515H186.925V421H170.905V442H186.985V437.485ZM196.72 426.88C192.025 426.88 188.785 430.135 188.785 434.635C188.785 439.135 192.025 442.39 196.72 442.39C199.45 442.39 201.61 441.19 203.02 439.195L199.36 436.585C198.625 437.515 197.695 438.01 196.585 438.01C194.95 438.01 193.585 436.765 193.585 434.635C193.585 432.52 194.98 431.26 196.615 431.26C197.755 431.26 198.595 431.725 199.33 432.67L203.005 430.105C201.595 428.095 199.45 426.88 196.72 426.88ZM211.695 426.88C207.105 426.88 203.715 430.18 203.715 434.635C203.715 439.09 207.105 442.39 211.695 442.39C216.3 442.39 219.69 439.09 219.69 434.635C219.69 430.18 216.3 426.88 211.695 426.88ZM211.695 431.26C213.54 431.26 214.89 432.655 214.89 434.635C214.89 436.615 213.54 438.01 211.695 438.01C209.865 438.01 208.515 436.615 208.515 434.635C208.515 432.655 209.865 431.26 211.695 431.26ZM239.916 426.88C237.891 426.88 236.241 427.645 235.251 429.34C234.351 427.765 232.701 426.88 230.766 426.88C228.801 426.88 227.316 427.585 226.386 429.13V427.285H221.886V442H226.581V434.08C226.581 432.175 227.661 431.29 228.966 431.29C230.421 431.29 231.291 432.265 231.291 434.005V442H235.986V434.08C235.986 432.175 237.081 431.29 238.371 431.29C239.841 431.29 240.711 432.265 240.711 434.005V442H245.406V432.34C245.406 428.95 243.276 426.88 239.916 426.88ZM266.302 426.88C264.277 426.88 262.627 427.645 261.637 429.34C260.737 427.765 259.087 426.88 257.152 426.88C255.187 426.88 253.702 427.585 252.772 429.13V427.285H248.272V442H252.967V434.08C252.967 432.175 254.047 431.29 255.352 431.29C256.807 431.29 257.677 432.265 257.677 434.005V442H262.372V434.08C262.372 432.175 263.467 431.29 264.757 431.29C266.227 431.29 267.097 432.265 267.097 434.005V442H271.792V432.34C271.792 428.95 269.662 426.88 266.302 426.88ZM281.422 426.88C276.952 426.88 273.877 430.09 273.877 434.725C273.877 439.315 277.012 442.39 281.632 442.39C284.347 442.39 286.582 441.505 288.112 439.975L285.082 437.155C284.152 437.995 282.967 438.445 281.872 438.445C280.252 438.445 279.112 437.695 278.722 436.09H288.697C288.757 435.775 288.787 435.115 288.787 434.635C288.772 430.03 285.787 426.88 281.422 426.88ZM281.437 430.87C282.802 430.87 283.717 431.65 284.092 433.12H278.737C279.097 431.665 279.982 430.87 281.437 430.87ZM299.484 426.88C297.684 426.88 296.319 427.555 295.464 428.98V427.285H290.964V442H295.659V434.05C295.659 432.22 296.679 431.395 298.344 431.395C299.184 431.395 300.069 431.575 300.699 431.785L301.134 427.105C300.774 427 300.174 426.88 299.484 426.88ZM309.71 426.88C305.015 426.88 301.775 430.135 301.775 434.635C301.775 439.135 305.015 442.39 309.71 442.39C312.44 442.39 314.6 441.19 316.01 439.195L312.35 436.585C311.615 437.515 310.685 438.01 309.575 438.01C307.94 438.01 306.575 436.765 306.575 434.635C306.575 432.52 307.97 431.26 309.605 431.26C310.745 431.26 311.585 431.725 312.32 432.67L315.995 430.105C314.585 428.095 312.44 426.88 309.71 426.88ZM324.25 426.88C319.78 426.88 316.705 430.09 316.705 434.725C316.705 439.315 319.84 442.39 324.46 442.39C327.175 442.39 329.41 441.505 330.94 439.975L327.91 437.155C326.98 437.995 325.795 438.445 324.7 438.445C323.08 438.445 321.94 437.695 321.55 436.09H331.525C331.585 435.775 331.615 435.115 331.615 434.635C331.6 430.03 328.615 426.88 324.25 426.88ZM324.265 430.87C325.63 430.87 326.545 431.65 326.92 433.12H321.565C321.925 431.665 322.81 430.87 324.265 430.87ZM181.09 453.61C174.61 453.61 170.035 458.14 170.035 464.5C170.035 470.86 174.61 475.39 181.09 475.39C185.11 475.39 188.305 473.605 190.225 470.74L186.115 467.83C184.915 469.615 183.175 470.59 181.045 470.59C177.94 470.59 175.255 468.4 175.255 464.5C175.255 460.9 177.715 458.41 181.03 458.41C183.205 458.41 184.93 459.4 186.025 461.185L190.42 458.665C188.635 455.485 185.095 453.61 181.09 453.61ZM199.372 459.88C194.782 459.88 191.392 463.18 191.392 467.635C191.392 472.09 194.782 475.39 199.372 475.39C203.977 475.39 207.367 472.09 207.367 467.635C207.367 463.18 203.977 459.88 199.372 459.88ZM199.372 464.26C201.217 464.26 202.567 465.655 202.567 467.635C202.567 469.615 201.217 471.01 199.372 471.01C197.542 471.01 196.192 469.615 196.192 467.635C196.192 465.655 197.542 464.26 199.372 464.26ZM218.443 459.88C216.478 459.88 214.993 460.585 214.063 462.13V460.285H209.563V475H214.258V467.08C214.258 465.175 215.338 464.29 216.643 464.29C218.098 464.29 218.968 465.265 218.968 467.005V475H223.663V465.34C223.663 461.935 221.383 459.88 218.443 459.88ZM233.67 459.88C228.975 459.88 225.735 463.135 225.735 467.635C225.735 472.135 228.975 475.39 233.67 475.39C236.4 475.39 238.56 474.19 239.97 472.195L236.31 469.585C235.575 470.515 234.645 471.01 233.535 471.01C231.9 471.01 230.535 469.765 230.535 467.635C230.535 465.52 231.93 464.26 233.565 464.26C234.705 464.26 235.545 464.725 236.28 465.67L239.955 463.105C238.545 461.095 236.4 459.88 233.67 459.88ZM248.211 459.88C243.741 459.88 240.666 463.09 240.666 467.725C240.666 472.315 243.801 475.39 248.421 475.39C251.136 475.39 253.371 474.505 254.901 472.975L251.871 470.155C250.941 470.995 249.756 471.445 248.661 471.445C247.041 471.445 245.901 470.695 245.511 469.09H255.486C255.546 468.775 255.576 468.115 255.576 467.635C255.561 463.03 252.576 459.88 248.211 459.88ZM248.226 463.87C249.591 463.87 250.506 464.65 250.881 466.12H245.526C245.886 464.665 246.771 463.87 248.226 463.87ZM266.498 459.88C264.503 459.88 263.168 460.72 262.283 461.875V460.285H257.753V481H262.433V473.605C263.318 474.655 264.608 475.39 266.498 475.39C270.428 475.39 273.353 471.97 273.353 467.62C273.353 463.3 270.428 459.88 266.498 459.88ZM265.373 464.26C267.263 464.26 268.523 465.715 268.523 467.635C268.523 469.555 267.263 471.01 265.373 471.01C263.528 471.01 262.238 469.585 262.238 467.635C262.238 465.685 263.528 464.26 265.373 464.26ZM286.689 460.285H281.664V455.995H276.969V460.285H274.224V464.44H276.969V469.345C276.969 473.035 278.754 475.39 282.699 475.39C285.069 475.39 286.539 474.715 287.919 473.755L286.299 470.095C285.564 470.53 284.619 471.01 283.749 471.01C282.564 471.01 281.664 470.44 281.664 468.745V464.44H286.689V460.285Z" fill="white"/>
</svg>
